HIERARCHY
ROOT Hips
{
	OFFSET 0.00000 0.00000 0.00000
	CHANNELS 6 Xposition Yposition Zposition Zrotation Yrotation Xrotation 
	JOINT LHipJoint
	{
		OFFSET 0 0 0
		CHANNELS 3 Zrotation Yrotation Xrotation
		JOINT LeftHip
		{
			OFFSET 1.59801 -1.77853 0.57028
			CHANNELS 3 Zrotation Yrotation Xrotation
			JOINT LeftKnee
			{
				OFFSET 2.39439 -6.57854 0.00000
				CHANNELS 3 Zrotation Yrotation Xrotation
				JOINT LeftAnkle
				{
					OFFSET 2.69334 -7.39989 0.00000
					CHANNELS 3 Zrotation Yrotation Xrotation
					JOINT LeftToe
					{
						OFFSET 0.09553 -0.26245 1.73747
						CHANNELS 3 Zrotation Yrotation Xrotation
						End Site
						{
							OFFSET 0.00000 -0.00000 0.89391
						}
					}
				}
			}
		}
	}
	JOINT RHipJoint
	{
		OFFSET 0 0 0
		CHANNELS 3 Zrotation Yrotation Xrotation
		JOINT RightHip
		{
			OFFSET -1.54704 -1.77852 0.57028
			CHANNELS 3 Zrotation Yrotation Xrotation
			JOINT RightKnee
			{
				OFFSET -2.40286 -6.60180 0.00000
				CHANNELS 3 Zrotation Yrotation Xrotation
				JOINT RightAnkle
				{
					OFFSET -2.63873 -7.24984 0.00000
					CHANNELS 3 Zrotation Yrotation Xrotation
					JOINT RightToe
					{
						OFFSET -0.15631 -0.42945 1.84436
						CHANNELS 3 Zrotation Yrotation Xrotation
						End Site
						{
							OFFSET -0.00000 -0.00000 0.95734
						}
					}
				}
			}
		}
	}
	JOINT lowerback
	{
		OFFSET 0 0 0
		CHANNELS 3 Zrotation Yrotation Xrotation
		JOINT Chest
		{
			OFFSET -0.00436 1.89866 -0.04018
			CHANNELS 3 Zrotation Yrotation Xrotation
			JOINT Chest2
			{
				OFFSET 0.02031 1.88273 0.09634
				CHANNELS 3 Zrotation Yrotation Xrotation
				JOINT lowerneck
				{
					OFFSET 0 0 0
					CHANNELS 3 Zrotation Yrotation Xrotation
					JOINT Neck
					{
						OFFSET -0.13105 1.89371 0.23083
						CHANNELS 3 Zrotation Yrotation Xrotation
						JOINT Head
						{
							OFFSET 0.17062 1.83990 -0.54062
							CHANNELS 3 Zrotation Yrotation Xrotation
							End Site
							{
								OFFSET 0.04576 1.94782 -0.21839
							}
						}
					}
				}
				JOINT LeftCollar
				{
					OFFSET 0 0 0
					CHANNELS 3 Zrotation Yrotation Xrotation
					JOINT LeftShoulder
					{
						OFFSET 3.12424 1.09204 0.22226
CHANNELS 3 Zrotation Xrotation Yrotation
						JOINT LeftElbow
						{
OFFSET 0 -5.292770 0.000000
CHANNELS 3 Zrotation Xrotation Yrotation
							JOINT LeftWrist
							{
OFFSET 0 -2.852260 0.000000
CHANNELS 3 Zrotation Xrotation Yrotation
								JOINT lhand
								{
									OFFSET 0 0 0
CHANNELS 3 Zrotation Xrotation Yrotation
									JOINT LFingers
									{
OFFSET 0 -0.602100 0.000000
CHANNELS 3 Zrotation Xrotation Yrotation
										End Site
										{
OFFSET 0 -0.485430 0.000000
										}
									}
								}
								JOINT LThumb
								{
OFFSET 0 0.000000 0.000000
CHANNELS 3 Zrotation Xrotation Yrotation
									End Site
									{
OFFSET 0 -0.492840 0.492840
									}
								}
							}
						}
					}
				}
				JOINT RightCollar
				{
					OFFSET 0 0 0
					CHANNELS 3 Zrotation Yrotation Xrotation
					JOINT RightShoulder
					{
						OFFSET -2.91709 1.01504 0.30199
CHANNELS 3 Zrotation Xrotation Yrotation
						JOINT RightElbow
						{
OFFSET 0 -5.133040 0.000000
CHANNELS 3 Zrotation Xrotation Yrotation
							JOINT RightWrist
							{
OFFSET 0 -2.743050 0.000000
CHANNELS 3 Zrotation Xrotation Yrotation
								JOINT rhand
								{
									OFFSET 0 0 0
CHANNELS 3 Zrotation Xrotation Yrotation
									JOINT RFingers
									{
OFFSET 0 -0.767980 0.000000
CHANNELS 3 Zrotation Xrotation Yrotation
										End Site
										{
OFFSET 0 -0.619160 0.000000
										}
									}
								}
								JOINT RThumb
								{
OFFSET 0 0.000000 0.000000
CHANNELS 3 Zrotation Xrotation Yrotation
									End Site
									{
OFFSET 0 -0.628620 0.628620
									}
								}
							}
						}
					}
				}
			}
		}
	}
}
MOTION
Frames: 10
Frame Time: 0.008333333333333333
-0.059469 17.244587 0.318285 -3.102162 -0.187629 5.253799 0.000000 0.000000 0.000000 -15.058231 -14.344601 -5.288968 1.837746 8.519286 24.302992 1.250152 0.087772 -21.186584 0.650090 -5.157639 -14.358665 0.000000 0.000000 0.000000 23.124693 11.309276 0.358963 -0.651318 -5.162064 14.371424 -0.604799 -5.700889 -17.880067 -0.422943 4.173756 -11.565990 1.047772 0.753996 -6.777736 1.749256 1.005388 -7.080865 1.256509 0.504864 -3.542681 -13.107327 -6.766158 -20.176915 -4.552124 -2.860213 44.011348 -0.838563 -4.049998 21.764613 0.000000 0.000000 0.000000 46.507249 6.429835 -109.751795 108.638089 -58.645634 76.067652 18.880326 -2.198997 -6.763262 0.000000 0.000000 0.000000 -7.125000 0.000000 0.000000 -6.686784 37.050643 -1.315356 0.000000 0.000000 0.000000 -24.143787 -12.846800 -30.027410 -125.006637 -54.820530 -89.789301 -41.361020 -50.684189 3.443817 0.000000 0.000000 0.000000 7.125000 0.000000 0.000000 -12.122743 34.362276 -3.225806
-0.016744 17.253234 0.313802 -2.654912 -7.422482 4.974950 0.000000 0.000000 0.000000 -16.853100 -11.589095 -3.155963 1.604001 7.987069 22.674964 1.246639 4.585792 -23.201532 0.727241 -5.442075 -15.175502 0.000000 0.000000 0.000000 21.818611 13.683214 0.121527 -0.741255 -5.499686 15.339518 -0.717800 -1.642683 -16.687108 -0.571649 4.841332 -13.456750 2.106146 2.405593 -6.286070 1.598259 3.155213 -6.830650 0.571731 1.525366 -3.526240 -11.350942 -5.930254 -20.322615 -3.750281 -2.746504 43.660669 -0.646844 -3.592994 21.396455 0.000000 0.000000 0.000000 45.591662 14.296075 -100.728517 109.508230 -58.511998 76.810220 16.644306 -0.782781 -5.237626 0.000000 0.000000 0.000000 -7.125000 0.000000 0.000000 -8.352912 35.344079 -2.000308 0.000000 0.000000 0.000000 -23.945799 -19.759922 -24.910360 -123.989756 -55.149440 -88.956595 -40.632849 -48.713758 4.226682 0.000000 0.000000 0.000000 7.125000 0.000000 0.000000 -11.630867 35.341039 -2.808151
0.021656 17.253637 0.294694 -2.171447 -12.422697 4.948932 0.000000 0.000000 0.000000 -18.201872 -9.784621 -2.226289 1.451584 7.615706 21.552843 1.242443 6.814548 -24.533242 0.353757 -3.816608 -10.561847 0.000000 0.000000 0.000000 20.721833 15.665020 -0.605992 -0.853585 -5.891955 16.471296 -0.758493 1.225963 -16.085551 -0.629849 5.078223 -14.131868 2.114390 3.337899 -5.871743 1.857495 4.407445 -6.799699 0.850788 2.152259 -3.743174 -10.312722 -5.873999 -20.331167 -1.765373 -4.194104 43.734015 -0.126235 -3.683090 21.467860 0.000000 0.000000 0.000000 43.304013 19.597323 -93.926779 109.983585 -58.435941 77.215395 12.450307 0.102154 -3.852216 0.000000 0.000000 0.000000 -7.125000 0.000000 0.000000 -11.577404 33.751809 -3.251818 0.000000 0.000000 0.000000 -23.721929 -25.536061 -20.283844 -122.218796 -55.688805 -87.498407 -40.871415 -48.505365 4.079964 0.000000 0.000000 0.000000 7.125000 0.000000 0.000000 -11.809172 35.164072 -2.904809
0.017591 17.261549 0.286902 -1.874111 -13.261885 5.337335 0.000000 0.000000 0.000000 -18.485904 -9.527426 -2.682884 1.441043 7.589093 21.472843 1.237084 6.910386 -24.555041 0.282902 -3.420529 -9.451947 0.000000 0.000000 0.000000 20.385580 16.923328 -0.997111 -0.893765 -6.025523 16.858465 -0.750627 0.814694 -16.117060 -0.642153 5.125757 -14.267793 1.426787 3.407854 -6.525367 2.006897 4.505370 -6.990123 1.422156 2.235616 -3.645268 -10.743459 -6.969628 -18.936794 1.516168 -7.703516 43.457213 0.864052 -4.622512 21.315151 0.000000 0.000000 0.000000 41.820038 19.220858 -92.608234 110.067005 -58.422364 77.286509 7.843308 -0.083262 -3.144657 0.000000 0.000000 0.000000 -7.125000 0.000000 0.000000 -15.138473 32.874511 -4.638846 0.000000 0.000000 0.000000 -23.221313 -26.407230 -17.090236 -121.972667 -55.760680 -87.295000 -40.634115 -48.156041 5.340360 0.000000 0.000000 0.000000 7.125000 0.000000 0.000000 -11.781599 36.773512 -2.424960
-0.024000 17.268087 0.313593 -2.242074 -9.845562 5.503384 0.000000 0.000000 0.000000 -17.302077 -10.164199 -3.499006 1.513405 7.769027 22.014773 1.196937 5.028587 -23.047501 0.601493 -4.963731 -13.805262 0.000000 0.000000 0.000000 21.456326 16.403175 -0.199558 -0.824280 -5.792563 16.183802 -0.675163 -2.290962 -16.523823 -0.564041 4.809631 -13.366498 0.992123 2.460343 -7.426510 1.822378 3.241354 -7.140657 1.470536 1.620597 -3.293398 -11.013122 -8.348466 -17.892947 5.214473 -11.958189 43.450449 1.902492 -5.811275 22.386166 0.000000 0.000000 0.000000 42.445078 14.664641 -95.868154 109.937704 -58.443409 77.176345 6.014646 2.367485 -3.316298 0.000000 0.000000 0.000000 -7.125000 0.000000 0.000000 -16.611911 32.968183 -5.081951 0.000000 0.000000 0.000000 -22.049437 -23.758196 -17.501234 -123.647618 -55.256372 -88.675493 -40.873098 -50.256422 4.344484 0.000000 0.000000 0.000000 7.125000 0.000000 0.000000 -11.847776 35.506197 -2.813318
-0.086289 17.272093 0.333627 -2.154689 -4.743230 5.372629 0.000000 0.000000 0.000000 -16.401816 -11.372496 -4.079491 1.533759 7.818648 22.164653 1.208298 1.401911 -21.321956 0.416173 -4.133907 -11.454758 0.000000 0.000000 0.000000 22.323264 15.222474 0.862709 -0.742490 -5.504191 15.352449 -0.551204 -6.007722 -17.504587 -0.422009 4.169535 -11.554042 -0.584750 1.093844 -7.934182 1.651236 1.501107 -7.116537 2.112264 0.814473 -2.989544 -12.250956 -9.752135 -16.777848 8.062639 -15.413544 42.967289 2.781751 -6.987313 23.046064 0.000000 0.000000 0.000000 43.844330 7.895311 -101.837392 109.668338 -58.486572 76.946724 5.654563 1.584548 -4.174003 0.000000 0.000000 0.000000 -7.125000 0.000000 0.000000 -17.064711 33.777742 -4.882343 0.000000 0.000000 0.000000 -21.671373 -19.498262 -21.378242 -126.066469 -54.463383 -90.653684 -40.329155 -51.221906 5.205100 0.000000 0.000000 0.000000 7.125000 0.000000 0.000000 -11.505230 36.579608 -2.422091
-0.130830 17.274370 0.347273 -2.307283 1.018414 5.434514 0.000000 0.000000 0.000000 -15.405851 -13.830865 -4.930449 1.607310 7.994985 22.698870 1.153886 -0.973252 -20.011380 0.615850 -5.020557 -13.967608 0.000000 0.000000 0.000000 23.198955 11.373521 0.924634 -0.611535 -5.004130 13.920642 -0.464037 -7.634962 -17.869015 -0.345315 3.775436 -10.445832 -1.831286 -0.150507 -7.953165 1.615202 -0.075272 -7.322437 2.695964 0.084198 -3.134377 -14.111742 -10.870511 -15.785510 9.754489 -17.441744 42.166734 3.491868 -7.891015 23.294585 0.000000 0.000000 0.000000 44.820333 0.239849 -110.682408 108.588575 -58.653048 76.025351 8.604837 -2.876466 -5.619594 0.000000 0.000000 0.000000 -7.125000 0.000000 0.000000 -14.992142 35.322212 -3.668523 0.000000 0.000000 0.000000 -22.245647 -14.063001 -27.588034 -127.493494 -53.957498 -91.811348 -41.159886 -52.128320 5.674207 0.000000 0.000000 0.000000 7.125000 0.000000 0.000000 -12.276101 37.241819 -2.386610
-0.152430 17.271250 0.352912 -3.927787 6.077277 5.754533 0.000000 0.000000 0.000000 -12.800841 -16.622904 -6.727376 1.834567 8.512419 24.281747 1.124096 -3.165644 -19.237090 0.735584 -5.479382 -15.281179 0.000000 0.000000 0.000000 25.342468 4.987545 0.012682 -0.392294 -4.020518 11.134660 -0.491079 -5.828293 -16.651282 -0.253176 3.236814 -8.938932 -1.488454 -1.252976 -8.088757 2.434619 -1.527475 -7.627441 3.281216 -0.627153 -3.282750 -15.904664 -11.241422 -15.553403 9.579485 -17.109724 41.478404 3.770731 -8.075787 22.836159 0.000000 0.000000 0.000000 44.049977 -4.782010 -117.504439 106.374282 -58.962049 74.131055 11.055633 -5.729703 -6.226620 0.000000 0.000000 0.000000 -7.125000 0.000000 0.000000 -13.109389 36.052353 -2.947449 0.000000 0.000000 0.000000 -23.444710 -9.777521 -33.221543 -127.048387 -54.118634 -91.451094 -42.084816 -54.034271 3.945038 0.000000 0.000000 0.000000 7.125000 0.000000 0.000000 -12.797198 35.050077 -3.193017
-0.161571 17.271976 0.356397 -4.348289 8.101736 5.766958 0.000000 0.000000 0.000000 -12.065853 -17.962971 -7.217480 1.903238 8.661603 24.742390 1.090003 -3.796932 -18.833177 0.772708 -5.612630 -15.664589 0.000000 0.000000 0.000000 25.832708 1.517752 -0.542612 -0.307245 -3.563525 9.851886 -0.551905 -3.731505 -15.892953 -0.164591 2.613743 -7.205044 -1.677106 -1.783879 -7.968630 3.098772 -2.206662 -7.716890 4.049555 -0.937637 -3.370073 -16.561756 -10.848945 -16.125836 7.204130 -14.777895 41.403697 3.069808 -7.499582 21.510582 0.000000 0.000000 0.000000 43.294971 -4.256611 -119.012062 105.155208 -59.114093 73.085697 13.252647 -5.643640 -7.019956 0.000000 0.000000 0.000000 -7.125000 0.000000 0.000000 -11.437493 36.972286 -2.295836 0.000000 0.000000 0.000000 -24.237676 -8.878083 -36.962990 -126.256729 -54.398016 -90.808506 -41.687772 -51.276656 7.535753 0.000000 0.000000 0.000000 7.125000 0.000000 0.000000 -13.000768 39.693372 -1.734994
-0.146682 17.279924 0.356613 -3.817548 5.417716 5.928775 0.000000 0.000000 0.000000 -13.132610 -17.313039 -6.275816 1.787723 8.408955 23.963463 1.133744 -1.682147 -19.642328 0.810662 -5.745774 -16.048618 0.000000 0.000000 0.000000 24.791941 2.805518 -0.818255 -0.356930 -3.837777 10.620748 -0.605592 -2.286358 -15.705548 -0.190956 2.812250 -7.756671 -1.089561 -1.121105 -7.938590 2.980797 -1.361894 -7.673850 3.639396 -0.545509 -3.423383 -15.801723 -9.682791 -17.958884 3.621582 -11.012610 41.847828 1.989727 -6.372989 21.077803 0.000000 0.000000 0.000000 43.963018 0.929015 -115.252946 106.443379 -58.953087 74.190346 15.107786 -5.547707 -7.267542 0.000000 0.000000 0.000000 -7.125000 0.000000 0.000000 -9.930330 37.337837 -1.895035 0.000000 0.000000 0.000000 -24.007816 -11.154095 -36.860759 -126.871840 -54.181749 -91.308034 -41.655432 -51.832108 6.663650 0.000000 0.000000 0.000000 7.125000 0.000000 0.000000 -12.845962 38.562677 -2.077225
